<svg id="Flat" enable-background="new 0 0 64 64" height="512" viewBox="0 0 64 64" width="512" xmlns="http://www.w3.org/2000/svg"><circle cx="32" cy="32" fill="#68dcf2" r="25"/><circle cx="32" cy="32" fill="#f5fcff" r="20"/><path d="m38 20v-9c0-2.209-1.791-4-4-4h-4c-2.209 0-4 1.791-4 4v9c0 1.702 1.067 3.146 2.566 3.724l-2.566 4.276v5h12v-5l-2.566-4.276c1.499-.578 2.566-2.022 2.566-3.724z" fill="#ffd4cf"/><path d="m38 14v-3c0-2.209-1.791-4-4-4h-4c-2.209 0-4 1.791-4 4v3z" fill="#ff593f"/><path d="m31 14h-5v-2h5c1.103 0 2-.897 2-2h2c0 2.206-1.794 4-4 4z" fill="#cc4733"/><path d="m35.434 23.724c-.446.172-.927.276-1.434.276h-4c-.507 0-.988-.104-1.434-.276l-.766 1.276 1.137 1.354c1.598 1.903 4.527 1.903 6.126 0l1.137-1.354z" fill="#e6aca3"/><path d="m47 52v-17.385c0-1.589-.94-3.027-2.395-3.664l-6.605-2.893-6 4-6-4-6.488 2.6c-1.517.608-2.512 2.078-2.512 3.713v17.629z" fill="#54524f"/><path d="m22 38h2v14h-2z" fill="#706d69"/><path d="m40 38h2v14h-2z" fill="#706d69"/><path d="m31 32-2 17 3.083 3 2.917-3-2-17z" fill="#ff593f"/><path d="m39 34-1-6-6 3.429-6-3.429-1 6 7-1.75z" fill="#fffefe"/><g fill="#2fb3cc"><path d="m63.707 31.293-3-3-1.414 1.414 1.293 1.293h-2.62c-.261-6.81-3.158-13.152-7.966-17.764v-7.236h4.586l-1.293 1.293 1.414 1.414 3-3c.391-.391.391-1.023 0-1.414l-3-3-1.414 1.414 1.293 1.293h-5.586c-.552 0-1 .448-1 1v6.52c-1.136-.888-2.346-1.699-3.641-2.4l-.952 1.759c7.768 4.204 12.593 12.297 12.593 21.121 0 8.823-4.825 16.916-12.592 21.121l.952 1.759c1.295-.701 2.503-1.512 3.64-2.4v6.52c0 .552.448 1 1 1h5.586l-1.293 1.293 1.414 1.414 3-3c.391-.391.391-1.023 0-1.414l-3-3-1.414 1.414 1.293 1.293h-4.586v-7.236c4.808-4.612 7.705-10.955 7.966-17.764h2.62l-1.293 1.293 1.414 1.414 3-3c.391-.391.391-1.023 0-1.414z"/><path d="m8 32c0-8.824 4.825-16.917 12.593-21.121l-.952-1.759c-1.295.701-2.504 1.512-3.641 2.4v-6.52c0-.552-.448-1-1-1h-5.586l1.293-1.293-1.414-1.414-3 3c-.391.391-.391 1.023 0 1.414l3 3 1.414-1.414-1.293-1.293h4.586v7.236c-4.808 4.612-7.705 10.954-7.966 17.764h-2.62l1.293-1.293-1.414-1.414-3 3c-.391.391-.391 1.023 0 1.414l3 3 1.414-1.414-1.293-1.293h2.62c.261 6.809 3.158 13.152 7.966 17.764v7.236h-4.586l1.293-1.293-1.414-1.414-3 3c-.391.391-.391 1.023 0 1.414l3 3 1.414-1.414-1.293-1.293h5.586c.552 0 1-.448 1-1v-6.52c1.136.888 2.345 1.699 3.64 2.4l.952-1.759c-7.767-4.205-12.592-12.298-12.592-21.121z"/></g></svg>